#!OML:ASF F:\VICON\USERDATA\INSTALL\Justin_Nancy\Justin_Nancy.ASF
:FULLY-SPECIFIED
:DEGREES
144
root -6.0567 16.831 0.958897 -23.1188 69.7908 -33.291
lowerback 8.37842 0.36887 7.43496
upperback -0.344724 1.70812 6.00298
thorax -5.06651 0.799724 1.89589
lowerneck -18.8926 -3.7085 -7.85154
upperneck 18.0886 -3.76925 4.37426
head 9.02938 -1.81916 2.2902
rclavicle -6.24184e-014 -2.38542e-014
rhumerus -32.6836 -3.21949 -69.1129
rradius 33.0467
rwrist 5.1555
rhand -17.3431 11.899
rfingers 7.12502
rthumb 8.90431 -17.8931
lclavicle -6.24184e-014 -2.38542e-014
lhumerus -29.1828 7.45114 82.6163
lradius 29.5326
lwrist 0.796384
lhand -17.7629 26.6617
lfingers 7.12502
lthumb 8.49911 56.4706
rfemur 11.5281 8.3825 28.9141
rtibia 13.6681
rfoot -14.1602 2.68584
rtoes -3.59037
lfemur -40.5703 6.20436 -32.7356
ltibia 24.6602
lfoot -15.6951 6.7029
ltoes 2.72848
145
root -5.94459 16.7947 1.10845 -22.6091 69.7233 -33.2293
lowerback 8.11885 0.789274 7.08579
upperback -0.394576 2.19768 5.92341
thorax -4.96965 1.04875 1.94811
lowerneck -18.9549 -3.74116 -7.98607
upperneck 18.0738 -3.81842 4.59174
head 9.04586 -1.82685 2.38014
rclavicle -8.34896e-015 -2.38542e-015
rhumerus -32.5134 -3.64721 -69.1638
rradius 32.5336
rwrist 5.63646
rhand -18.0832 11.5892
rfingers 7.12502
rthumb 8.19003 -18.2321
lclavicle -8.34896e-015 -2.38542e-015
lhumerus -28.8489 8.6333 81.7354
lradius 29.0839
lwrist 0.245167
lhand -18.1196 26.7267
lfingers 7.12502
lthumb 8.15493 56.5494
rfemur 12.251 7.78557 29.3037
rtibia 12.5118
rfoot -13.9582 2.36951
rtoes -6.50985
lfemur -40.7987 4.72982 -31.7547
ltibia 23.4384
lfoot -14.7332 7.46821
ltoes 1.66171
146
root -5.82413 16.7485 1.25233 -22.7128 69.6538 -33.6329
lowerback 8.00655 1.12113 6.8878
upperback -0.439124 2.6088 5.89642
thorax -4.95281 1.25583 1.98199
lowerneck -18.8513 -3.61371 -7.8057
upperneck 17.9907 -3.70699 4.61971
head 8.98739 -1.75954 2.376
rclavicle 1.17283e-014 9.54166e-015
rhumerus -32.4583 -4.26336 -69.1424
rradius 32.1286
rwrist 5.93806
rhand -18.5721 11.2358
rfingers 7.12502
rthumb 7.71813 -18.6033
lclavicle 1.17283e-014 9.54166e-015
lhumerus -28.6866 10.1294 80.8095
lradius 28.6802
lwrist -0.42422
lhand -18.03 26.5302
lfingers 7.12502
lthumb 8.2414 56.3494
rfemur 12.6017 7.09531 29.769
rtibia 12.5152
rfoot -14.2466 2.52499
rtoes -6.80927
lfemur -40.7382 4.22308 -31.1312
ltibia 22.0961
lfoot -14.3073 6.90643
ltoes -1.3713
147
root -5.69988 16.7 1.39365 -22.9598 69.9877 -33.9754
lowerback 8.0634 1.36335 6.76071
upperback -0.485071 2.90804 5.65658
thorax -5.02085 1.39737 1.76277
lowerneck -18.6398 -3.54177 -7.24967
upperneck 17.8991 -3.74773 4.47375
head 8.90568 -1.75724 2.23035
rclavicle 2.38542e-014 -5.00937e-014
rhumerus -32.6011 -5.45539 -69.1171
rradius 31.9437
rwrist 6.57818
rhand -18.4975 10.8446
rfingers 7.12502
rthumb 7.79019 -18.9919
lclavicle 2.38542e-014 -5.00937e-014
lhumerus -28.5299 11.576 79.7325
lradius 28.2722
lwrist -1.22241
lhand -18.4094 26.8412
lfingers 7.12502
lthumb 7.87521 56.6745
rfemur 13.4201 6.15675 30.0688
rtibia 12.0694
rfoot -14.4622 2.45814
rtoes -8.40707
lfemur -40.608 3.77592 -30.9308
ltibia 21.3483
lfoot -14.4727 5.48631
ltoes -2.78368
148
root -5.59036 16.6412 1.42839 -22.0962 70.0815 -34.36
lowerback 7.51071 1.51022 7.93592
upperback -0.820607 3.15954 5.34551
thorax -4.98174 1.47911 0.773232
lowerneck -18.9742 -3.47332 -7.50506
upperneck 18.1676 -3.59448 4.6294
head 9.05623 -1.68327 2.34622
rclavicle -4.04527e-014 3.97569e-014
rhumerus -32.2269 -6.28624 -68.9446
rradius 31.5166
rwrist 7.42548
rhand -18.4526 10.4744
rfingers 7.12502
rthumb 7.83354 -19.3605
lclavicle -4.04527e-014 3.97569e-014
lhumerus -28.4529 13.4674 78.8391
lradius 28.009
lwrist -1.65468
lhand -19.21 27.3768
lfingers 7.12502
lthumb 7.10243 57.2376
rfemur 12.8877 3.83154 29.3149
rtibia 10.8446
rfoot -13.6136 4.4381
rtoes -10.7576
lfemur -42.0443 0.292953 -29.2632
ltibia 21.4011
lfoot -14.2482 6.64152
ltoes -1.98168
149
root -5.44572 16.613 1.61465 -22.7788 70.0364 -34.9142
lowerback 7.49283 1.80008 7.45524
upperback -0.643035 3.49323 5.47735
thorax -4.80468 1.66834 1.14122
lowerneck -19.0081 -3.50883 -7.82923
upperneck 18.1782 -3.5971 4.85606
head 9.0772 -1.6819 2.4775
rclavicle -8.01102e-014 -2.38542e-015
rhumerus -31.9783 -6.47806 -68.8228
rradius 31.015
rwrist 7.33224
rhand -18.6425 10.2644
rfingers 7.12502
rthumb 7.65024 -19.5772
lclavicle -8.01102e-014 -2.38542e-015
lhumerus -28.4973 14.2683 78.2369
lradius 28.0098
lwrist -0.883356
lhand -19.8674 27.538
lfingers 7.12502
lthumb 6.46785 57.4193
rfemur 14.2651 3.66034 30.1358
rtibia 9.95307
rfoot -13.215 4.13252
rtoes -11.5173
lfemur -41.8504 0.20453 -28.4502
ltibia 21.7694
lfoot -14.4054 4.64004
ltoes -2.52246
150
root -5.2949 16.5781 1.84996 -26.9764 69.4141 -38.4752
lowerback 8.13876 2.3311 7.88777
upperback -0.501232 4.32966 5.65856
thorax -4.9809 2.07442 0.974834
lowerneck -18.704 -3.81245 -7.26452
upperneck 18.315 -4.20066 4.85233
head 9.0983 -1.92633 2.30447
rclavicle -1.31198e-014 -4.92986e-014
rhumerus -32.6501 -7.69392 -68.7226
rradius 30.7306
rwrist 6.73703
rhand -18.72 10.2006
rfingers 7.12502
rthumb 7.57537 -19.6437
lclavicle -1.31198e-014 -4.92986e-014
lhumerus -28.4643 14.2496 77.4857
lradius 27.7975
lwrist -0.901546
lhand -19.8028 27.5177
lfingers 7.12502
lthumb 6.53015 57.397
rfemur 16.4077 3.32808 32.422
rtibia 8.91258
rfoot -12.4205 4.13218
rtoes -10.3889
lfemur -41.283 1.33984 -26.9162
ltibia 22.7198
lfoot -13.9851 2.11166
ltoes -4.12662
151
root -5.14097 16.5697 1.9401 -23.7658 69.5417 -35.9877
lowerback 7.68604 2.96818 7.76962
upperback -0.866714 5.07359 4.89693
thorax -5.01787 2.41334 0.178918
lowerneck -18.8189 -4.19877 -7.18967
upperneck 18.7008 -4.8094 5.09099
head 9.29762 -2.17478 2.29185
rclavicle -1.35174e-014 2.10712e-014
rhumerus -33.3702 -10.0362 -68.2727
rradius 30.71
rwrist 7.15065
rhand -18.8876 10.1876
rfingers 7.12502
rthumb 7.41363 -19.6625
lclavicle -1.35174e-014 2.10712e-014
lhumerus -28.6441 16.1976 76.4429
lradius 27.6289
lwrist -2.48165
lhand -19.169 27.4559
lfingers 7.12502
lthumb 7.14205 57.3154
rfemur 17.4418 3.77347 31.5071
rtibia 6.30025
rfoot -10.4061 4.53563
rtoes -7.76705
lfemur -42.5477 2.57435 -28.551
ltibia 24.18
lfoot -12.9946 -0.195687
ltoes -2.76426
152
root -4.97819 16.5841 2.04136 -21.5044 69.6991 -34.0169
lowerback 7.60803 3.4002 7.66499
upperback -1.03356 5.59434 4.34699
thorax -5.07474 2.65133 -0.389821
lowerneck -18.942 -4.51724 -7.43157
upperneck 18.8845 -5.24381 5.3875
head 9.4293 -2.35821 2.37281
rclavicle -2.93207e-014 -2.22639e-014
rhumerus -34.4352 -14.1668 -67.3688
rradius 31.2353
rwrist 9.83456
rhand -18.9047 10.3859
rfingers 7.12502
rthumb 7.3971 -19.4648
lclavicle -2.93207e-014 -2.22639e-014
lhumerus -29.0447 18.5678 75.3746
lradius 27.6382
lwrist -3.66357
lhand -18.7873 27.5244
lfingers 7.12502
lthumb 7.51048 57.371
rfemur 18.6155 3.97655 30.7927
rtibia 4.2634
rfoot -8.41808 4.89116
rtoes -7.71936
lfemur -43.2444 3.62983 -29.9041
ltibia 25.5907
lfoot -11.3812 -1.68242
ltoes 0.348906
153
root -4.80856 16.6051 2.16706 -18.9585 70.1577 -31.4
lowerback 7.75707 3.76656 7.10678
upperback -1.14665 5.98493 3.58844
thorax -5.22305 2.82963 -0.927845
lowerneck -19.0806 -4.71728 -7.19677
upperneck 19.1549 -5.62594 5.55349
head 9.57399 -2.49466 2.33736
rclavicle -3.26007e-014 -3.97569e-014
rhumerus -34.4827 -14.1902 -68.3687
rradius 30.4572
rwrist 8.28592
rhand -19.802 10.3125
rfingers 7.12502
rthumb 6.53094 -19.5668
lclavicle -3.26007e-014 -3.97569e-014
lhumerus -29.3071 18.9605 74.4144
lradius 27.7039
lwrist -3.24576
lhand -19.1013 27.9644
lfingers 7.12502
lthumb 7.20738 57.8216
rfemur 17.9402 3.91359 29.775
rtibia 6.49657
rfoot -8.01466 5.62124
rtoes -8.77697
lfemur -43.1397 3.74177 -30.9737
ltibia 26.4231
lfoot -10.1066 -1.55434
ltoes 1.80449
154
root -4.63525 16.6304 2.31149 -17.0033 70.8532 -29.1392
lowerback 8.08585 3.84306 6.33848
upperback -1.20328 5.99405 3.00534
thorax -5.47647 2.82981 -1.14234
lowerneck -19.2191 -4.68335 -7.2484
upperneck 19.4457 -5.63012 5.84212
head 9.71265 -2.46223 2.44716
rclavicle -6.22196e-014 3.57812e-015
rhumerus -34.4179 -14.0903 -69.1877
rradius 29.8835
rwrist 7.35809
rhand -19.9264 10.1987
rfingers 7.12502
rthumb 6.41082 -19.6842
lclavicle -6.22196e-014 3.57812e-015
lhumerus -29.6535 19.219 73.4006
lradius 27.5294
lwrist -2.37629
lhand -19.1642 27.9215
lfingers 7.12502
lthumb 7.14666 57.7808
rfemur 17.0803 3.48893 28.9055
rtibia 9.67912
rfoot -7.69791 6.68358
rtoes -9.92746
lfemur -42.4783 2.90957 -31.367
ltibia 26.9757
lfoot -9.3969 -0.799326
ltoes 4.55466
155
root -4.46707 16.6575 2.40878 -13.4849 71.5404 -25.6527
lowerback 8.15687 3.81738 5.6548
upperback -1.2597 5.84876 2.41625
thorax -5.58473 2.75857 -1.37025
lowerneck -19.4877 -4.60341 -7.89761
upperneck 19.5898 -5.41231 6.26791
head 9.82967 -2.35697 2.73483
rclavicle 1.64991e-014 1.11319e-014
rhumerus -34.1182 -13.6526 -69.809
rradius 29.5522
rwrist 6.35162
rhand -19.8506 10.1919
rfingers 7.12502
rthumb 6.48405 -19.6888
lclavicle 1.64991e-014 1.11319e-014
lhumerus -30.0146 19.9064 72.7207
lradius 27.3543
lwrist -0.599172
lhand -19.5212 27.8641
lfingers 7.12502
lthumb 6.80203 57.7348
rfemur 15.7712 3.25904 27.3888
rtibia 12.5869
rfoot -6.58718 7.83865
rtoes -12.107
lfemur -42.2122 1.04703 -31.7793
ltibia 27.5862
lfoot -9.00672 0.501921
ltoes 9.05464
156
root -4.29553 16.6848 2.51821 -7.28904 72.647 -19.7016
lowerback 7.74385 3.72889 3.95511
upperback -1.33957 5.48488 1.79156
thorax -5.54427 2.61783 -1.01467
lowerneck -19.7066 -4.59814 -8.68037
upperneck 19.5905 -5.23863 6.63093
head 9.89036 -2.29193 3.01658
rclavicle -4.12478e-014 -2.14687e-014
rhumerus -33.8683 -13.4501 -70.2306
rradius 29.2966
rwrist 5.6254
rhand -20.3948 10.0954
rfingers 7.12502
rthumb 5.95863 -19.8008
lclavicle -4.12478e-014 -2.14687e-014
lhumerus -30.6339 21.737 71.864
lradius 27.1562
lwrist -0.296372
lhand -19.7084 27.9223
lfingers 7.12502
lthumb 6.62135 57.7988
rfemur 14.0432 2.63372 25.0021
rtibia 15.5697
rfoot -4.76926 9.1042
rtoes -12.9502
lfemur -42.179 -0.360786 -33.4669
ltibia 28.1639
lfoot -8.81102 0.855665
ltoes 9.92088
157
root -4.12467 16.7005 2.64161 -10.824 72.9877 -22.9415
lowerback 8.18747 3.73418 4.94116
upperback -1.20722 5.62967 2.0044
thorax -5.58137 2.66306 -1.38061
lowerneck -19.495 -4.63676 -8.50945
upperneck 19.358 -5.26848 6.27593
head 9.75642 -2.33803 2.85678
rclavicle 1.37161e-014 -3.93594e-014
rhumerus -34.1324 -14.2769 -70.3684
rradius 29.3256
rwrist 5.57407
rhand -20.9485 9.9249
rfingers 7.12502
rthumb 5.42406 -19.9857
lclavicle 1.37161e-014 -3.93594e-014
lhumerus -31.4539 24.8286 70.5561
lradius 26.8378
lwrist -2.77867
lhand -18.6441 27.6954
lfingers 7.12502
lthumb 7.64867 57.5371
rfemur 13.1397 2.45704 26.0302
rtibia 18.5971
rfoot -2.17772 9.83041
rtoes -13.2044
lfemur -41.5429 -0.986495 -32.0392
ltibia 28.9843
lfoot -8.45494 1.29234
ltoes 7.70617
158
root -3.94449 16.7285 2.75858 -11.9974 73.3161 -23.9462
lowerback 8.34718 3.89756 5.4603
upperback -1.1652 5.89661 1.81847
thorax -5.54264 2.77556 -1.89844
lowerneck -19.1435 -4.67112 -7.93388
upperneck 19.1384 -5.40727 5.85375
head 9.59604 -2.41307 2.59455
rclavicle -3.35946e-014 7.15625e-015
rhumerus -34.605 -15.6231 -70.6979
rradius 29.3988
rwrist 5.62519
rhand -20.8073 10.1019
rfingers 7.12502
rthumb 5.56043 -19.8052
lclavicle -3.35946e-014 7.15625e-015
lhumerus -32.1058 26.619 69.476
lradius 26.5078
lwrist -4.15508
lhand -17.9483 27.7366
lfingers 7.12502
lthumb 8.3202 57.5528
rfemur 12.0855 1.86552 26.0325
rtibia 21.19
rfoot 1.46072 10.8907
rtoes -12.8037
lfemur -41.1642 -1.33685 -31.4723
ltibia 30.1284
lfoot -8.5741 1.46273
ltoes 7.36383
